<?xml version="1.0" encoding="iso-8859-1"?>
<!-- Uploaded to: SVG Repo, www.svgrepo.com, Generator: SVG Repo Mixer Tools -->
<svg height="800px" width="800px" version="1.1" id="Capa_1" xmlns="http://www.w3.org/2000/svg" xmlns:xlink="http://www.w3.org/1999/xlink" 
	 viewBox="0 0 513.151 513.151" xml:space="preserve">
<g>
	<path style="fill:#ffffff;" d="M466.985,166.637c-0.036-0.531-0.137-1.044-0.31-1.545c-0.066-0.191-0.113-0.37-0.197-0.555
		c-0.292-0.632-0.656-1.235-1.169-1.748L304.269,1.742c-0.513-0.513-1.11-0.877-1.742-1.164c-0.185-0.09-0.376-0.137-0.573-0.203
		c-0.495-0.167-0.991-0.269-1.51-0.298C300.307,0.066,300.187,0,300.056,0H135.597c-3.294,0-5.967,2.673-5.967,5.967v70.111H52.061
		c-3.294,0-5.967,2.673-5.967,5.967v425.139c0,3.3,2.673,5.967,5.967,5.967h325.493c3.3,0,5.967-2.667,5.967-5.967v-70.111h77.569
		c3.3,0,5.967-2.667,5.967-5.967V167.001C467.057,166.875,466.991,166.762,466.985,166.637z M141.564,11.928h152.519v139.243
		L220.732,77.82c-0.513-0.513-1.11-0.877-1.742-1.164c-0.185-0.09-0.376-0.137-0.573-0.203c-0.495-0.167-0.991-0.269-1.51-0.298
		c-0.137-0.012-0.257-0.078-0.388-0.078h-74.956V11.928z M371.587,425.134v11.934v64.144H58.028V88.005h71.602h11.934h68.983
		v155.073c0,3.294,2.673,5.967,5.967,5.967h155.073V425.134z M455.123,425.134h-71.602V243.078c0-0.125-0.066-0.239-0.072-0.364
		c-0.036-0.531-0.137-1.044-0.31-1.545c-0.066-0.191-0.113-0.37-0.197-0.555c-0.292-0.632-0.656-1.235-1.169-1.748l-65.892-65.898
		h139.243V425.134z"/>
</g>
</svg>